# xmcd
#
# Track frame offsets:
#	150
#	12624
#	29757
#	42959
#	54674
#	68721
#	83716
#	97514
#	110918
#	121822
#	133530
#	147169
#	158579
#	170937
#	184092
#	201448
#	217266
#	230692
#	241230
#	256821
#	270413
#	281727
#	294283
#	306694
#	318862
#	332662
#
# Disc length: 4625 seconds
# Revision: 0
# Processed by: cddbd v1.5.2PL0 Copyright (c) Steve Scherf et al.
# Submitted via: dBpowerAMP V12.0
#
DISCID=89120f1a
DTITLE=Various Artist - Caiga quien caiga
DYEAR=1999
DGENRE=Soul
TTITLE0=Aretha Franklin - [You make me feel like] A natural woman
TTITLE1=Otis Redding - Try a little tenderness
TTITLE2=Ben E King - Stand by me
TTITLE3=Sam and Dave - Hold on, i'm coming
TTITLE4=Wilson Picket - Mustang Sally
TTITLE5=Percy Sledge - Warm and tender love
TTITLE6=The drifters - On Broadway
TTITLE7=King Curtis - Memphis soul stew
TTITLE8=Aretha Franklin - Respect
TTITLE9=Rufus Thomas - Walkin' the dog
TTITLE10=Eddie Floyd - Big bird
TTITLE11=Sam and Dave - Wrap it up
TTITLE12=R B Greaves - Take a letter, Maria
TTITLE13=Otis Redding - I've been loving you too long [To stop now]
TTITLE14=Brook Benton - Rainy night in Georgia
TTITLE15=Aretha Franklin - Spanish Harlem
TTITLE16=Wilson Picket - 634-5789
TTITLE17=The coasters - Charlie Brown
TTITLE18=Ray Charles - The right time
TTITLE19=Otis Redding and Carla Thomas - Tramp
TTITLE20=The drifters - Saturday night at the movies
TTITLE21=Aretha Franklin - Chain of fools
TTITLE22=Sam and Dave - I thank you
TTITLE23=Otis Redding - Fa-fa-fa-fa-fa [Sad song]
TTITLE24=Percy Sledge - Take Ttme to know her
TTITLE25=The spinners - I'll be around
EXTD=
EXTT0=
EXTT1=
EXTT2=
EXTT3=
EXTT4=
EXTT5=
EXTT6=
EXTT7=
EXTT8=
EXTT9=
EXTT10=
EXTT11=
EXTT12=
EXTT13=
EXTT14=
EXTT15=
EXTT16=
EXTT17=
EXTT18=
EXTT19=
EXTT20=
EXTT21=
EXTT22=
EXTT23=
EXTT24=
EXTT25=
PLAYORDER=
